<svg width="18" height="10" viewBox="0 0 18 10" fill="none" xmlns="http://www.w3.org/2000/svg">
<path d="M1.06588 5.43283C0.902771 5.26495 0.766925 5.11809 0.660758 5C0.766925 4.88191 0.902771 4.73505 1.06588 4.56717C1.50875 4.11134 2.14969 3.50356 2.94046 2.89664C4.53398 1.67363 6.67619 0.5 9 0.5C11.3238 0.5 13.466 1.67363 15.0595 2.89664C15.8503 3.50356 16.4913 4.11134 16.9341 4.56717C17.0972 4.73505 17.2331 4.88191 17.3392 5C17.2331 5.11809 17.0972 5.26495 16.9341 5.43283C16.4913 5.88866 15.8503 6.49644 15.0595 7.10335C13.466 8.32637 11.3238 9.5 9 9.5C6.67619 9.5 4.53398 8.32637 2.94046 7.10335C2.14969 6.49644 1.50875 5.88866 1.06588 5.43283Z" stroke="#828282"/>
<circle cx="9" cy="5" r="2.5" stroke="#828282"/>
</svg>
